<svg width="28" height="28" fill="none" xmlns="http://www.w3.org/2000/svg"><path d="M15.36.667c2.4 0 2.907.027 4.133.08 1.413.067 2.387.293 3.227.627.88.333 1.627.8 2.36 1.533.747.733 1.2 1.48 1.547 2.36.333.84.547 1.813.613 3.24.067 1.267.08 1.76.08 4.427v2.133c0 2.667-.013 3.16-.08 4.427a9.763 9.763 0 01-.636 3.294l.022-.067c-.347.88-.8 1.627-1.533 2.36a6.632 6.632 0 01-2.373 1.547c-.84.333-1.813.547-3.227.613-1.267.067-1.773.08-4.44.08h-2.12c-2.667 0-3.16-.013-4.44-.08a9.763 9.763 0 01-3.294-.636l.067.022a6.575 6.575 0 01-2.359-1.533l-.001-.001a6.544 6.544 0 01-1.532-2.329l-.015-.045a9.59 9.59 0 01-.613-3.217v-.01a70.693 70.693 0 01-.08-4.167v.034-2.733c0-2.4.027-2.907.08-4.133.067-1.413.293-2.387.613-3.227.347-.88.8-1.627 1.547-2.36a6.27 6.27 0 012.317-1.519l.043-.014A9.576 9.576 0 018.481.747h.012c1.227-.053 1.733-.08 4.133-.08h2.734zm.027 2.4H12.6c-2.307 0-2.8.027-4 .08-1.293.053-2 .267-2.467.453a4.068 4.068 0 00-1.533 1c-.466.467-.76.907-1 1.533-.173.467-.4 1.173-.453 2.48-.053 1.2-.08 1.68-.08 4v2.773c0 2.32.027 2.8.08 4 .053 1.293.267 2 .453 2.467.24.627.533 1.067 1 1.533.467.466.907.76 1.533 1 .467.187 1.173.4 2.48.453 1.293.067 1.76.08 4.64.08h1.48c2.893 0 3.347-.013 4.653-.08 1.293-.053 2-.267 2.467-.453a4.068 4.068 0 001.533-1c.466-.467.76-.907 1-1.533.187-.467.4-1.173.453-2.467.067-1.307.08-1.76.08-4.653v-1.467c0-2.893-.013-3.36-.08-4.667-.053-1.293-.267-2-.453-2.467a4.142 4.142 0 00-.999-1.532l-.001-.001a4.141 4.141 0 00-1.505-.991l-.028-.009a7.322 7.322 0 00-2.462-.453h-.005a70.03 70.03 0 00-4.03-.08h.03l.001.001zM14 7.147a6.847 6.847 0 110 13.694 6.847 6.847 0 010-13.694zm0 2.4a4.447 4.447 0 100 8.894 4.447 4.447 0 000-8.894zm7.107-4.267a1.6 1.6 0 110 3.2 1.6 1.6 0 010-3.2z" fill="#000"/></svg>