<svg width="28" height="22" fill="none" xmlns="http://www.w3.org/2000/svg"><path d="M27.333 2.84c-1 .493-2 .667-3.173.827 1.173-.667 2-1.667 2.333-3a10.756 10.756 0 01-3.423 1.322l-.07.012A5.795 5.795 0 0019.004.334H19c-2.84 0-5.333 2.507-5.333 5.507 0 .493 0 .827.173 1.16A15.317 15.317 0 012.529 1.362l-.022-.028a5.012 5.012 0 00-.666 2.855l-.001-.015a5.466 5.466 0 002.473 4.481l.021.013c-.84 0-1.667-.333-2.507-.667 0 2.667 1.84 4.84 4.333 5.333-.493.173-1 .173-1.493.173-.333 0-.667 0-1-.173.667 2.173 2.667 3.84 5.173 3.84a10.535 10.535 0 01-6.637 2.335l-.213-.002h.011H.668C3.033 21.016 5.904 21.936 8.984 22h.017c10 0 15.507-8.333 15.507-15.507v-.667a9.777 9.777 0 002.803-2.944l.024-.042h-.002z" fill="#000"/></svg>